<svg width="40" height="34" viewBox="0 0 40 34" fill="none" xmlns="http://www.w3.org/2000/svg">
<path fill-rule="evenodd" clip-rule="evenodd" d="M0.800003 5.00001C0.800003 3.72697 1.30572 2.50607 2.20589 1.6059C3.10607 0.705725 4.32696 0.200012 5.6 0.200012H34.4C35.673 0.200012 36.8939 0.705725 37.7941 1.6059C38.6943 2.50607 39.2 3.72697 39.2 5.00001V9.80001C39.2 11.0731 38.6943 12.2939 37.7941 13.1941C36.8939 14.0943 35.673 14.6 34.4 14.6H5.6C4.32696 14.6 3.10607 14.0943 2.20589 13.1941C1.30572 12.2939 0.800003 11.0731 0.800003 9.80001V5.00001ZM34.4 7.40001C34.4 8.03653 34.1471 8.64698 33.6971 9.09707C33.247 9.54715 32.6365 9.80001 32 9.80001C31.3635 9.80001 30.753 9.54715 30.3029 9.09707C29.8529 8.64698 29.6 8.03653 29.6 7.40001C29.6 6.76349 29.8529 6.15304 30.3029 5.70296C30.753 5.25287 31.3635 5.00001 32 5.00001C32.6365 5.00001 33.247 5.25287 33.6971 5.70296C34.1471 6.15304 34.4 6.76349 34.4 7.40001ZM0.800003 24.2C0.800003 22.927 1.30572 21.7061 2.20589 20.8059C3.10607 19.9057 4.32696 19.4 5.6 19.4H34.4C35.673 19.4 36.8939 19.9057 37.7941 20.8059C38.6943 21.7061 39.2 22.927 39.2 24.2V29C39.2 30.2731 38.6943 31.4939 37.7941 32.3941C36.8939 33.2943 35.673 33.8 34.4 33.8H5.6C4.32696 33.8 3.10607 33.2943 2.20589 32.3941C1.30572 31.4939 0.800003 30.2731 0.800003 29V24.2ZM34.4 26.6C34.4 27.2365 34.1471 27.847 33.6971 28.2971C33.247 28.7472 32.6365 29 32 29C31.3635 29 30.753 28.7472 30.3029 28.2971C29.8529 27.847 29.6 27.2365 29.6 26.6C29.6 25.9635 29.8529 25.353 30.3029 24.903C30.753 24.4529 31.3635 24.2 32 24.2C32.6365 24.2 33.247 24.4529 33.6971 24.903C34.1471 25.353 34.4 25.9635 34.4 26.6Z" fill="#7E3AF2"/>
</svg>
