<svg width="40" height="42" viewBox="0 0 40 42" fill="none" xmlns="http://www.w3.org/2000/svg">
<path d="M3.2 0.399994C2.56348 0.399994 1.95303 0.65285 1.50295 1.10294C1.05286 1.55302 0.800003 2.16347 0.800003 2.79999C0.800003 3.43651 1.05286 4.04696 1.50295 4.49705C1.95303 4.94714 2.56348 5.19999 3.2 5.19999H6.128L6.86 8.13279C6.86727 8.16656 6.87528 8.20017 6.884 8.23359L10.1432 21.2656L8 23.4064C4.976 26.4304 7.1168 31.6 11.3936 31.6H32C32.6365 31.6 33.247 31.3471 33.6971 30.897C34.1471 30.447 34.4 29.8365 34.4 29.2C34.4 28.5635 34.1471 27.953 33.6971 27.5029C33.247 27.0528 32.6365 26.8 32 26.8H11.3936L13.7936 24.4H29.6C30.0456 24.3998 30.4823 24.2755 30.8613 24.0411C31.2402 23.8067 31.5464 23.4714 31.7456 23.0728L38.9456 8.67279C39.1284 8.30698 39.2147 7.90053 39.1963 7.49201C39.1779 7.08348 39.0554 6.68644 38.8405 6.33854C38.6255 5.99064 38.3253 5.70344 37.9682 5.50418C37.611 5.30492 37.2089 5.20021 36.8 5.19999H11.072L10.328 2.21679C10.198 1.6978 9.89829 1.23713 9.4765 0.907967C9.05472 0.578799 8.53503 0.400008 8 0.399994H3.2ZM34.4 37.6C34.4 38.5548 34.0207 39.4704 33.3456 40.1456C32.6705 40.8207 31.7548 41.2 30.8 41.2C29.8452 41.2 28.9296 40.8207 28.2544 40.1456C27.5793 39.4704 27.2 38.5548 27.2 37.6C27.2 36.6452 27.5793 35.7295 28.2544 35.0544C28.9296 34.3793 29.8452 34 30.8 34C31.7548 34 32.6705 34.3793 33.3456 35.0544C34.0207 35.7295 34.4 36.6452 34.4 37.6ZM11.6 41.2C12.5548 41.2 13.4705 40.8207 14.1456 40.1456C14.8207 39.4704 15.2 38.5548 15.2 37.6C15.2 36.6452 14.8207 35.7295 14.1456 35.0544C13.4705 34.3793 12.5548 34 11.6 34C10.6452 34 9.72955 34.3793 9.05442 35.0544C8.37929 35.7295 8 36.6452 8 37.6C8 38.5548 8.37929 39.4704 9.05442 40.1456C9.72955 40.8207 10.6452 41.2 11.6 41.2Z" fill="#7E3AF2"/>
</svg>
